<?xml version="1.0" encoding="UTF-8" standalone="no"?>
<svg xmlns:dc="http://purl.org/dc/elements/1.1/"
    xmlns:svg="http://www.w3.org/2000/svg"
    xmlns="http://www.w3.org/2000/svg"
    xmlns:xlink="http://www.w3.org/1999/xlink"
    version="1.0"
		viewBox="-5 0 260 140"
    >

	<defs>
		<linearGradient id="fadeIn" x1="0%" y1="0%" x2="0%" y2="100%">
			<stop offset="10%" style="stop-color:rgb(0,0,0); stop-opacity:.01"/>
			<stop offset="80%" style="stop-color:rgb(0,0,0); stop-opacity:.05"/>
		</linearGradient>
	</defs>
	
	<g class="parent">
		<svg:path fill="#000000" style="fill:url(#fadeIn)"
			d="M230.41954,59.391216 C230.41954,32.771286 188.93698,10.876546 135.77853,8.2436886 C135.77853,8.2436886 125.5,7.9905624 125.5,7.9905624 C125.33334,7.9864578 125.16666,7.9823537 125,7.9782491 C66.778397,7.97825 19.58046,30.99662 19.58046,59.391216 C19.58046,83.674034 54.098755,104.02493 100.51031,109.40971 C100.51031,109.40971 100.5,109.07152 100.5,109.07152 L100.5,102.5 L123.5,120 L100.5,137.5 L100.5,128.00031 C100.5,128.00031 100.29497,128.23 100.29497,128.23 C43.370071,122.29292 0.5,96.240097 0.5,64.999908 C0.5,29.377592 56.24054,0.49999958 125,0.5 C125,0.5 137.7294,0.83300692 137.7294,0.83300692 C200.50928,4.1360455 249.5,31.603989 249.5,64.999908 M230.41954,59.391216 C230.41954,83.622681 196.04706,103.93885 149.78394,109.37535 C149.78394,109.37535 149.5,109.02331 149.5,109.02331 C149.5,106.84887 149.5,104.67444 149.5,102.5 L126.5,120 L149.5,137.5 L149.5,128.26656 C149.5,128.26656 149.76578,128.22366 149.76578,128.22366 C206.66042,122.27438 249.5,96.228989 249.5,64.999908"
			/>

		<!--M249.5,64.999908 C249.5,31.603989 200.50928,4.1360455 137.7294,0.83300692 C137.7294,0.83300692 125,0.5 125,0.5 C56.24054,0.49999958 0.5,29.377592 0.5,64.999908 C0.5,96.240097 43.508617,120.05096 100.43351,125.98803 C100.43351,125.98803 100.5,137.5 100.5,137.5 L123.5,120 L100.5,102.5 C100.5,102.5 100.51031,112.03078 100.51031,112.03078 C54.098755,106.646 12.941909,86.663948 12.941909,62.38113 C12.941909,33.986534 66.778397,7.97825 125,7.9782491 C125.16666,7.9823537 125.33334,7.9864578 125.5,7.9905624 C125.5,7.9905624 135.77853,8.2436886 135.77853,8.2436886 C188.93698,10.876546 236.09744,32.557961 236.09744,59.177891 C236.09744,59.177891 236.09744,61.370323 236.09744,61.370323 C236.09744,85.601784 200.17671,109.38465 149.39224,112.23482 C149.39224,112.23482 149.5,104.67444 149.5,102.5 L126.5,120 L149.5,137.5 C149.5,137.5 149.68793,126.42393 149.68793,126.42393 C206.58257,120.47466 249.5,96.228989 249.5,64.999908-->
		<!--M230.41954,59.391216 C230.41954,32.771286 188.93698,10.876546 135.77853,8.2436886 C135.77853,8.2436886 125.5,7.9905624 125.5,7.9905624 C125.33334,7.9864578 125.16666,7.9823537 125,7.9782491 C66.778397,7.97825 19.58046,30.99662 19.58046,59.391216 C19.58046,83.674034 54.098755,104.02493 100.51031,109.40971 C100.51031,109.40971 100.5,109.07152 100.5,109.07152 L100.5,102.5 L123.5,120 L100.5,137.5 L100.5,128.00031 C100.5,128.00031 100.29497,128.23 100.29497,128.23 C43.370071,122.29292 0.5,96.240097 0.5,64.999908 C0.5,29.377592 56.24054,0.49999958 125,0.5 C125,0.5 137.7294,0.83300692 137.7294,0.83300692 C200.50928,4.1360455 249.5,31.603989 249.5,64.999908 M230.41954,59.391216 C230.41954,83.622681 196.04706,103.93885 149.78394,109.37535 C149.78394,109.37535 149.5,109.02331 149.5,109.02331 C149.5,106.84887 149.5,104.67444 149.5,102.5 L126.5,120 L149.5,137.5 L149.5,128.26656 C149.5,128.26656 149.76578,128.22366 149.76578,128.22366 C206.66042,122.27438 249.5,96.228989 249.5,64.999908-->
	</g>
</svg>